# xmcd CD database file
#
# Track frame offsets:
#	182
#	14795
#	25077
#	38427
#	53275
#	67427
#	81020
#	92737
#	104300
#	117662
#	130030
#	142022
#	156927
#	170167
#
# Disc length: 2458 seconds
#
# Revision: 0
# Processed by: cddbd v1.4b42PL0 Copyright (c) Steve Scherf et al.
# Submitted via: CDex 1.40Beta5
#
DISCID=bf09980e
DTITLE=Muddy Waters - 28 Great Blues Songs CD 2/2
DYEAR=1993
DGENRE=Blues
TTITLE0=Baby Please Don't Go
TTITLE1=Mean Red Spider
TTITLE2=Rollin' and Tumblin'
TTITLE3=Rock Me
TTITLE4=One More Mile
TTITLE5=Sad Letter
TTITLE6=Goin' Home
TTITLE7=Sittin' Here Drinkin'
TTITLE8=She Moves Me
TTITLE9=So Glad I'm Living
TTITLE10=The Stuff You Gotta Watch
TTITLE11=Walkin' Thru the Park
TTITLE12=You Can't Lose What You Ain't Never Had
TTITLE13=You Gonna Need My Help
EXTD=YEAR: 1993 ID3G:   0
EXTT0=
EXTT1=
EXTT2=
EXTT3=
EXTT4=
EXTT5=
EXTT6=
EXTT7=
EXTT8=
EXTT9=
EXTT10=
EXTT11=
EXTT12=
EXTT13=
PLAYORDER=
